<svg height="6782" width="720" xmlns="http://www.w3.org/2000/svg">
<rect height="6782" fill="#555" width="720"></rect>
<text fill="#7f7" font-family="Courier New" font-size="12" xml:space="preserve">
<tspan x="10" y="26">117 megabytes installed</tspan>
<tspan x="10" y="42"></tspan>
<tspan x="10" y="58">node_modules</tspan>
<tspan x="10" y="74">└─┬ swagger-editor@3.0.5 </tspan>
<tspan x="10" y="90">  ├─┬ boron@0.2.3 </tspan>
<tspan x="10" y="106">  │ └── domkit@0.0.1 </tspan>
<tspan x="10" y="122">  ├── immutable@3.8.1 </tspan>
<tspan x="10" y="138">  ├─┬ js-yaml@3.8.3 </tspan>
<tspan x="10" y="154">  │ ├─┬ argparse@1.0.9 </tspan>
<tspan x="10" y="170">  │ │ └── sprintf-js@1.0.3 </tspan>
<tspan x="10" y="186">  │ └── esprima@3.1.3 </tspan>
<tspan x="10" y="202">  ├── json-beautify@1.0.1 </tspan>
<tspan x="10" y="218">  ├── jsonschema@1.1.1 </tspan>
<tspan x="10" y="234">  ├─┬ UNMET PEER DEPENDENCY react@15.5.4</tspan>
<tspan x="10" y="250">  │ ├─┬ fbjs@0.8.12 </tspan>
<tspan x="10" y="266">  │ │ ├── core-js@1.2.7 </tspan>
<tspan x="10" y="282">  │ │ ├─┬ isomorphic-fetch@2.2.1 </tspan>
<tspan x="10" y="298">  │ │ │ ├─┬ node-fetch@1.6.3 </tspan>
<tspan x="10" y="314">  │ │ │ │ ├─┬ encoding@0.1.12 </tspan>
<tspan x="10" y="330">  │ │ │ │ │ └── iconv-lite@0.4.15 </tspan>
<tspan x="10" y="346">  │ │ │ │ └── is-stream@1.1.0 </tspan>
<tspan x="10" y="362">  │ │ │ └── whatwg-fetch@2.0.3 </tspan>
<tspan x="10" y="378">  │ │ ├─┬ promise@7.1.1 </tspan>
<tspan x="10" y="394">  │ │ │ └── asap@2.0.5 </tspan>
<tspan x="10" y="410">  │ │ ├── setimmediate@1.0.5 </tspan>
<tspan x="10" y="426">  │ │ └── ua-parser-js@0.7.12 </tspan>
<tspan x="10" y="442">  │ ├─┬ loose-envify@1.3.1 </tspan>
<tspan x="10" y="458">  │ │ └── js-tokens@3.0.1 </tspan>
<tspan x="10" y="474">  │ ├── object-assign@4.1.1 </tspan>
<tspan x="10" y="490">  │ └── prop-types@15.5.8 </tspan>
<tspan x="10" y="506">  ├── react-addons-css-transition-group@15.5.2 </tspan>
<tspan x="10" y="522">  ├─┬ react-dd-menu@2.0.0 </tspan>
<tspan x="10" y="538">  │ └── classnames@2.2.5 </tspan>
<tspan x="10" y="554">  ├── react-dom@15.5.4 </tspan>
<tspan x="10" y="570">  ├── react-file-download@0.3.3 </tspan>
<tspan x="10" y="586">  ├─┬ react-redux@4.4.8 </tspan>
<tspan x="10" y="602">  │ ├── create-react-class@15.5.2 </tspan>
<tspan x="10" y="618">  │ ├── hoist-non-react-statics@1.2.0 </tspan>
<tspan x="10" y="634">  │ ├── invariant@2.2.2 </tspan>
<tspan x="10" y="650">  │ └── lodash@4.17.4 </tspan>
<tspan x="10" y="666">  ├─┬ redux@3.6.0 </tspan>
<tspan x="10" y="682">  │ ├── lodash-es@4.17.4 </tspan>
<tspan x="10" y="698">  │ └── symbol-observable@1.0.4 </tspan>
<tspan x="10" y="714">  ├─┬ swagger-ui@3.0.6 </tspan>
<tspan x="10" y="730">  │ ├─┬ babel-polyfill@6.23.0 </tspan>
<tspan x="10" y="746">  │ │ ├─┬ babel-runtime@6.23.0 </tspan>
<tspan x="10" y="762">  │ │ │ └── core-js@2.4.1 </tspan>
<tspan x="10" y="778">  │ │ ├── core-js@2.4.1 </tspan>
<tspan x="10" y="794">  │ │ └── regenerator-runtime@0.10.3 </tspan>
<tspan x="10" y="810">  │ ├─┬ brace@0.7.0 </tspan>
<tspan x="10" y="826">  │ │ └── w3c-blob@0.0.1 </tspan>
<tspan x="10" y="842">  │ ├── deep-extend@0.4.1 </tspan>
<tspan x="10" y="858">  │ ├─┬ expect@1.20.2 </tspan>
<tspan x="10" y="874">  │ │ ├─┬ define-properties@1.1.2 </tspan>
<tspan x="10" y="890">  │ │ │ └── foreach@2.0.5 </tspan>
<tspan x="10" y="906">  │ │ ├─┬ has@1.0.1 </tspan>
<tspan x="10" y="922">  │ │ │ └── function-bind@1.1.0 </tspan>
<tspan x="10" y="938">  │ │ ├─┬ is-equal@1.5.5 </tspan>
<tspan x="10" y="954">  │ │ │ ├── is-arrow-function@2.0.3 </tspan>
<tspan x="10" y="970">  │ │ │ ├── is-boolean-object@1.0.0 </tspan>
<tspan x="10" y="986">  │ │ │ ├── is-callable@1.1.3 </tspan>
<tspan x="10" y="1002">  │ │ │ ├── is-date-object@1.0.1 </tspan>
<tspan x="10" y="1018">  │ │ │ ├── is-generator-function@1.0.6 </tspan>
<tspan x="10" y="1034">  │ │ │ ├── is-number-object@1.0.3 </tspan>
<tspan x="10" y="1050">  │ │ │ ├── is-string@1.0.4 </tspan>
<tspan x="10" y="1066">  │ │ │ ├── is-symbol@1.0.1 </tspan>
<tspan x="10" y="1082">  │ │ │ └─┬ object.entries@1.0.4 </tspan>
<tspan x="10" y="1098">  │ │ │   └─┬ es-abstract@1.7.0 </tspan>
<tspan x="10" y="1114">  │ │ │     └── es-to-primitive@1.1.1 </tspan>
<tspan x="10" y="1130">  │ │ ├── is-regex@1.0.4 </tspan>
<tspan x="10" y="1146">  │ │ ├── object-inspect@1.2.2 </tspan>
<tspan x="10" y="1162">  │ │ ├── object-keys@1.0.11 </tspan>
<tspan x="10" y="1178">  │ │ └── tmatch@2.0.1 </tspan>
<tspan x="10" y="1194">  │ ├── getbase@2.8.2 </tspan>
<tspan x="10" y="1210">  │ ├─┬ less@2.7.1 </tspan>
<tspan x="10" y="1226">  │ │ ├─┬ errno@0.1.4 </tspan>
<tspan x="10" y="1242">  │ │ │ └── prr@0.0.0 </tspan>
<tspan x="10" y="1258">  │ │ ├── graceful-fs@4.1.11 </tspan>
<tspan x="10" y="1274">  │ │ ├── image-size@0.5.1 </tspan>
<tspan x="10" y="1290">  │ │ ├── mime@1.3.4 </tspan>
<tspan x="10" y="1306">  │ │ ├── mkdirp@0.5.1 </tspan>
<tspan x="10" y="1322">  │ │ └── source-map@0.5.6 </tspan>
<tspan x="10" y="1338">  │ ├── lodash@4.17.2 </tspan>
<tspan x="10" y="1354">  │ ├─┬ matcher@0.1.2 </tspan>
<tspan x="10" y="1370">  │ │ └── escape-string-regexp@1.0.5 </tspan>
<tspan x="10" y="1386">  │ ├─┬ memoizee@0.4.1 </tspan>
<tspan x="10" y="1402">  │ │ ├── d@1.0.0 </tspan>
<tspan x="10" y="1418">  │ │ ├─┬ es5-ext@0.10.15 </tspan>
<tspan x="10" y="1434">  │ │ │ ├── es6-iterator@2.0.1 </tspan>
<tspan x="10" y="1450">  │ │ │ └── es6-symbol@3.1.1 </tspan>
<tspan x="10" y="1466">  │ │ ├── es6-weak-map@2.0.2 </tspan>
<tspan x="10" y="1482">  │ │ ├── event-emitter@0.3.5 </tspan>
<tspan x="10" y="1498">  │ │ ├── is-promise@2.1.0 </tspan>
<tspan x="10" y="1514">  │ │ ├── lru-queue@0.1.0 </tspan>
<tspan x="10" y="1530">  │ │ ├── next-tick@1.0.0 </tspan>
<tspan x="10" y="1546">  │ │ └── timers-ext@0.1.2 </tspan>
<tspan x="10" y="1562">  │ ├─┬ promise-worker@1.1.1 </tspan>
<tspan x="10" y="1578">  │ │ └─┬ lie@3.1.1 </tspan>
<tspan x="10" y="1594">  │ │   └── immediate@3.0.6 </tspan>
<tspan x="10" y="1610">  │ ├── react-addons-perf@0.14.8 </tspan>
<tspan x="10" y="1626">  │ ├── react-addons-shallow-compare@0.14.8 </tspan>
<tspan x="10" y="1642">  │ ├── react-addons-test-utils@15.5.1 </tspan>
<tspan x="10" y="1658">  │ ├── react-collapse@2.3.1 </tspan>
<tspan x="10" y="1674">  │ ├── react-height@2.2.1 </tspan>
<tspan x="10" y="1690">  │ ├─┬ react-hot-loader@1.3.1 </tspan>
<tspan x="10" y="1706">  │ │ ├── react-hot-api@0.4.7 </tspan>
<tspan x="10" y="1722">  │ │ └─┬ source-map@0.4.4 </tspan>
<tspan x="10" y="1738">  │ │   └── amdefine@1.0.1 </tspan>
<tspan x="10" y="1754">  │ ├── react-immutable-proptypes@2.1.0 </tspan>
<tspan x="10" y="1770">  │ ├─┬ react-motion@0.4.4 </tspan>
<tspan x="10" y="1786">  │ │ ├── performance-now@0.2.0 </tspan>
<tspan x="10" y="1802">  │ │ └── raf@3.3.0 </tspan>
<tspan x="10" y="1818">  │ ├── react-object-inspector@0.2.1 </tspan>
<tspan x="10" y="1834">  │ ├─┬ react-remarkable@1.1.1 </tspan>
<tspan x="10" y="1850">  │ │ └─┬ remarkable@1.7.1 </tspan>
<tspan x="10" y="1866">  │ │   ├─┬ argparse@0.1.16 </tspan>
<tspan x="10" y="1882">  │ │   │ ├── underscore@1.7.0 </tspan>
<tspan x="10" y="1898">  │ │   │ └── underscore.string@2.4.0 </tspan>
<tspan x="10" y="1914">  │ │   └── autolinker@0.15.3 </tspan>
<tspan x="10" y="1930">  │ ├─┬ react-split-pane@0.1.57 </tspan>
<tspan x="10" y="1946">  │ │ ├─┬ inline-style-prefixer@2.0.5 </tspan>
<tspan x="10" y="1962">  │ │ │ ├── bowser@1.6.1 </tspan>
<tspan x="10" y="1978">  │ │ │ └── hyphenate-style-name@1.0.2 </tspan>
<tspan x="10" y="1994">  │ │ └── react-style-proptype@1.4.0 </tspan>
<tspan x="10" y="2010">  │ ├── redux-immutable@3.0.8 </tspan>
<tspan x="10" y="2026">  │ ├─┬ redux-logger@3.0.1 </tspan>
<tspan x="10" y="2042">  │ │ └── deep-diff@0.3.4 </tspan>
<tspan x="10" y="2058">  │ ├── reselect@2.5.3 </tspan>
<tspan x="10" y="2074">  │ ├── serialize-error@2.0.0 </tspan>
<tspan x="10" y="2090">  │ ├─┬ shallowequal@0.2.2 </tspan>
<tspan x="10" y="2106">  │ │ └─┬ lodash.keys@3.1.2 </tspan>
<tspan x="10" y="2122">  │ │   ├── lodash._getnative@3.9.1 </tspan>
<tspan x="10" y="2138">  │ │   ├── lodash.isarguments@3.1.0 </tspan>
<tspan x="10" y="2154">  │ │   └── lodash.isarray@3.0.4 </tspan>
<tspan x="10" y="2170">  │ ├─┬ swagger-client@3.0.5 </tspan>
<tspan x="10" y="2186">  │ │ ├── btoa@1.1.2 </tspan>
<tspan x="10" y="2202">  │ │ ├── fast-json-patch@1.1.8 </tspan>
<tspan x="10" y="2218">  │ │ ├─┬ isomorphic-form-data@0.0.1 </tspan>
<tspan x="10" y="2234">  │ │ │ └─┬ form-data@1.0.1 </tspan>
<tspan x="10" y="2250">  │ │ │   ├── async@2.3.0 </tspan>
<tspan x="10" y="2266">  │ │ │   └─┬ combined-stream@1.0.5 </tspan>
<tspan x="10" y="2282">  │ │ │     └── delayed-stream@1.0.0 </tspan>
<tspan x="10" y="2298">  │ │ ├── lodash@4.16.2 </tspan>
<tspan x="10" y="2314">  │ │ ├─┬ node-inspector@0.12.8 </tspan>
<tspan x="10" y="2330">  │ │ │ ├── async@0.9.2 </tspan>
<tspan x="10" y="2346">  │ │ │ ├─┬ biased-opener@0.2.8 </tspan>
<tspan x="10" y="2362">  │ │ │ │ ├─┬ browser-launcher2@0.4.6 </tspan>
<tspan x="10" y="2378">  │ │ │ │ │ ├── headless@0.1.7 </tspan>
<tspan x="10" y="2394">  │ │ │ │ │ ├── lodash@2.4.2 </tspan>
<tspan x="10" y="2410">  │ │ │ │ │ ├─┬ osenv@0.1.4 </tspan>
<tspan x="10" y="2426">  │ │ │ │ │ │ ├── os-homedir@1.0.2 </tspan>
<tspan x="10" y="2442">  │ │ │ │ │ │ └── os-tmpdir@1.0.2 </tspan>
<tspan x="10" y="2458">  │ │ │ │ │ ├─┬ plist@1.2.0 </tspan>
<tspan x="10" y="2474">  │ │ │ │ │ │ ├── base64-js@0.0.8 </tspan>
<tspan x="10" y="2490">  │ │ │ │ │ │ ├─┬ xmlbuilder@4.0.0 </tspan>
<tspan x="10" y="2506">  │ │ │ │ │ │ │ └── lodash@3.10.1 </tspan>
<tspan x="10" y="2522">  │ │ │ │ │ │ └── xmldom@0.1.27 </tspan>
<tspan x="10" y="2538">  │ │ │ │ │ ├── rimraf@2.2.8 </tspan>
<tspan x="10" y="2554">  │ │ │ │ │ ├── uid@0.0.2 </tspan>
<tspan x="10" y="2570">  │ │ │ │ │ └─┬ win-detect-browsers@1.0.2 </tspan>
<tspan x="10" y="2586">  │ │ │ │ │   ├── after@0.8.2 </tspan>
<tspan x="10" y="2602">  │ │ │ │ │   ├── xtend@4.0.1 </tspan>
<tspan x="10" y="2618">  │ │ │ │ │   └── yargs@1.3.3 </tspan>
<tspan x="10" y="2634">  │ │ │ │ ├── minimist@1.2.0 </tspan>
<tspan x="10" y="2650">  │ │ │ │ └─┬ x-default-browser@0.3.1 </tspan>
<tspan x="10" y="2666">  │ │ │ │   └─┬ default-browser-id@1.0.4 </tspan>
<tspan x="10" y="2682">  │ │ │ │     ├─┬ bplist-parser@0.1.1 </tspan>
<tspan x="10" y="2698">  │ │ │ │     │ └── big-integer@1.6.19 </tspan>
<tspan x="10" y="2714">  │ │ │ │     ├─┬ meow@3.7.0 </tspan>
<tspan x="10" y="2730">  │ │ │ │     │ ├── camelcase-keys@2.1.0 </tspan>
<tspan x="10" y="2746">  │ │ │ │     │ ├─┬ loud-rejection@1.6.0 </tspan>
<tspan x="10" y="2762">  │ │ │ │     │ │ └─┬ currently-unhandled@0.4.1 </tspan>
<tspan x="10" y="2778">  │ │ │ │     │ │   └── array-find-index@1.0.2 </tspan>
<tspan x="10" y="2794">  │ │ │ │     │ ├── map-obj@1.0.1 </tspan>
<tspan x="10" y="2810">  │ │ │ │     │ ├── minimist@1.2.0 </tspan>
<tspan x="10" y="2826">  │ │ │ │     │ ├─┬ normalize-package-data@2.3.6 </tspan>
<tspan x="10" y="2842">  │ │ │ │     │ │ ├── hosted-git-info@2.4.2 </tspan>
<tspan x="10" y="2858">  │ │ │ │     │ │ ├─┬ is-builtin-module@1.0.0 </tspan>
<tspan x="10" y="2874">  │ │ │ │     │ │ │ └── builtin-modules@1.1.1 </tspan>
<tspan x="10" y="2890">  │ │ │ │     │ │ └─┬ validate-npm-package-license@3.0.1 </tspan>
<tspan x="10" y="2906">  │ │ │ │     │ │   ├─┬ spdx-correct@1.0.2 </tspan>
<tspan x="10" y="2922">  │ │ │ │     │ │   │ └── spdx-license-ids@1.2.2 </tspan>
<tspan x="10" y="2938">  │ │ │ │     │ │   └── spdx-expression-parse@1.0.4 </tspan>
<tspan x="10" y="2954">  │ │ │ │     │ ├─┬ read-pkg-up@1.0.1 </tspan>
<tspan x="10" y="2970">  │ │ │ │     │ │ ├─┬ find-up@1.1.2 </tspan>
<tspan x="10" y="2986">  │ │ │ │     │ │ │ ├── path-exists@2.1.0 </tspan>
<tspan x="10" y="3002">  │ │ │ │     │ │ │ └─┬ pinkie-promise@2.0.1 </tspan>
<tspan x="10" y="3018">  │ │ │ │     │ │ │   └── pinkie@2.0.4 </tspan>
<tspan x="10" y="3034">  │ │ │ │     │ │ └─┬ read-pkg@1.1.0 </tspan>
<tspan x="10" y="3050">  │ │ │ │     │ │   ├─┬ load-json-file@1.1.0 </tspan>
<tspan x="10" y="3066">  │ │ │ │     │ │   │ ├─┬ parse-json@2.2.0 </tspan>
<tspan x="10" y="3082">  │ │ │ │     │ │   │ │ └─┬ error-ex@1.3.1 </tspan>
<tspan x="10" y="3098">  │ │ │ │     │ │   │ │   └── is-arrayish@0.2.1 </tspan>
<tspan x="10" y="3114">  │ │ │ │     │ │   │ ├── pify@2.3.0 </tspan>
<tspan x="10" y="3130">  │ │ │ │     │ │   │ └─┬ strip-bom@2.0.0 </tspan>
<tspan x="10" y="3146">  │ │ │ │     │ │   │   └── is-utf8@0.2.1 </tspan>
<tspan x="10" y="3162">  │ │ │ │     │ │   └── path-type@1.1.0 </tspan>
<tspan x="10" y="3178">  │ │ │ │     │ ├─┬ redent@1.0.0 </tspan>
<tspan x="10" y="3194">  │ │ │ │     │ │ ├─┬ indent-string@2.1.0 </tspan>
<tspan x="10" y="3210">  │ │ │ │     │ │ │ └─┬ repeating@2.0.1 </tspan>
<tspan x="10" y="3226">  │ │ │ │     │ │ │   └── is-finite@1.0.2 </tspan>
<tspan x="10" y="3242">  │ │ │ │     │ │ └─┬ strip-indent@1.0.1 </tspan>
<tspan x="10" y="3258">  │ │ │ │     │ │   └── get-stdin@4.0.1 </tspan>
<tspan x="10" y="3274">  │ │ │ │     │ └── trim-newlines@1.0.0 </tspan>
<tspan x="10" y="3290">  │ │ │ │     └── untildify@2.1.0 </tspan>
<tspan x="10" y="3306">  │ │ │ ├─┬ glob@5.0.15 </tspan>
<tspan x="10" y="3322">  │ │ │ │ ├─┬ inflight@1.0.6 </tspan>
<tspan x="10" y="3338">  │ │ │ │ │ └── wrappy@1.0.2 </tspan>
<tspan x="10" y="3354">  │ │ │ │ ├─┬ minimatch@3.0.3 </tspan>
<tspan x="10" y="3370">  │ │ │ │ │ └─┬ brace-expansion@1.1.7 </tspan>
<tspan x="10" y="3386">  │ │ │ │ │   ├── balanced-match@0.4.2 </tspan>
<tspan x="10" y="3402">  │ │ │ │ │   └── concat-map@0.0.1 </tspan>
<tspan x="10" y="3418">  │ │ │ │ └── once@1.4.0 </tspan>
<tspan x="10" y="3434">  │ │ │ ├─┬ rc@1.2.1 </tspan>
<tspan x="10" y="3450">  │ │ │ │ ├── ini@1.3.4 </tspan>
<tspan x="10" y="3466">  │ │ │ │ ├── minimist@1.2.0 </tspan>
<tspan x="10" y="3482">  │ │ │ │ └── strip-json-comments@2.0.1 </tspan>
<tspan x="10" y="3498">  │ │ │ ├── semver@4.3.6 </tspan>
<tspan x="10" y="3514">  │ │ │ ├─┬ serve-favicon@2.4.2 </tspan>
<tspan x="10" y="3530">  │ │ │ │ └── ms@1.0.0 </tspan>
<tspan x="10" y="3546">  │ │ │ ├─┬ strong-data-uri@1.0.4 </tspan>
<tspan x="10" y="3562">  │ │ │ │ └── truncate@1.0.5 </tspan>
<tspan x="10" y="3578">  │ │ │ ├─┬ v8-debug@0.7.7 </tspan>
<tspan x="10" y="3594">  │ │ │ │ ├── nan@2.6.2 </tspan>
<tspan x="10" y="3610">  │ │ │ │ └─┬ node-pre-gyp@0.6.34 </tspan>
<tspan x="10" y="3626">  │ │ │ │   ├─┬ nopt@4.0.1 </tspan>
<tspan x="10" y="3642">  │ │ │ │   │ └── abbrev@1.1.0 </tspan>
<tspan x="10" y="3658">  │ │ │ │   ├─┬ npmlog@4.0.2 </tspan>
<tspan x="10" y="3674">  │ │ │ │   │ ├─┬ are-we-there-yet@1.1.2 </tspan>
<tspan x="10" y="3690">  │ │ │ │   │ │ └── delegates@1.0.0 </tspan>
<tspan x="10" y="3706">  │ │ │ │   │ ├── console-control-strings@1.1.0 </tspan>
<tspan x="10" y="3722">  │ │ │ │   │ ├─┬ gauge@2.7.3 </tspan>
<tspan x="10" y="3738">  │ │ │ │   │ │ ├── aproba@1.1.1 </tspan>
<tspan x="10" y="3754">  │ │ │ │   │ │ ├── has-unicode@2.0.1 </tspan>
<tspan x="10" y="3770">  │ │ │ │   │ │ ├── signal-exit@3.0.2 </tspan>
<tspan x="10" y="3786">  │ │ │ │   │ │ └── wide-align@1.1.0 </tspan>
<tspan x="10" y="3802">  │ │ │ │   │ └── set-blocking@2.0.0 </tspan>
<tspan x="10" y="3818">  │ │ │ │   ├─┬ request@2.81.0 </tspan>
<tspan x="10" y="3834">  │ │ │ │   │ ├── aws-sign2@0.6.0 </tspan>
<tspan x="10" y="3850">  │ │ │ │   │ ├── aws4@1.6.0 </tspan>
<tspan x="10" y="3866">  │ │ │ │   │ ├── caseless@0.12.0 </tspan>
<tspan x="10" y="3882">  │ │ │ │   │ ├── extend@3.0.0 </tspan>
<tspan x="10" y="3898">  │ │ │ │   │ ├── forever-agent@0.6.1 </tspan>
<tspan x="10" y="3914">  │ │ │ │   │ ├─┬ form-data@2.1.4 </tspan>
<tspan x="10" y="3930">  │ │ │ │   │ │ └── asynckit@0.4.0 </tspan>
<tspan x="10" y="3946">  │ │ │ │   │ ├─┬ har-validator@4.2.1 </tspan>
<tspan x="10" y="3962">  │ │ │ │   │ │ ├─┬ ajv@4.11.7 </tspan>
<tspan x="10" y="3978">  │ │ │ │   │ │ │ ├── co@4.6.0 </tspan>
<tspan x="10" y="3994">  │ │ │ │   │ │ │ └─┬ json-stable-stringify@1.0.1 </tspan>
<tspan x="10" y="4010">  │ │ │ │   │ │ │   └── jsonify@0.0.0 </tspan>
<tspan x="10" y="4026">  │ │ │ │   │ │ └── har-schema@1.0.5 </tspan>
<tspan x="10" y="4042">  │ │ │ │   │ ├─┬ hawk@3.1.3 </tspan>
<tspan x="10" y="4058">  │ │ │ │   │ │ ├── boom@2.10.1 </tspan>
<tspan x="10" y="4074">  │ │ │ │   │ │ ├── cryptiles@2.0.5 </tspan>
<tspan x="10" y="4090">  │ │ │ │   │ │ ├── hoek@2.16.3 </tspan>
<tspan x="10" y="4106">  │ │ │ │   │ │ └── sntp@1.0.9 </tspan>
<tspan x="10" y="4122">  │ │ │ │   │ ├─┬ http-signature@1.1.1 </tspan>
<tspan x="10" y="4138">  │ │ │ │   │ │ ├── assert-plus@0.2.0 </tspan>
<tspan x="10" y="4154">  │ │ │ │   │ │ ├─┬ jsprim@1.4.0 </tspan>
<tspan x="10" y="4170">  │ │ │ │   │ │ │ ├── assert-plus@1.0.0 </tspan>
<tspan x="10" y="4186">  │ │ │ │   │ │ │ ├── extsprintf@1.0.2 </tspan>
<tspan x="10" y="4202">  │ │ │ │   │ │ │ ├── json-schema@0.2.3 </tspan>
<tspan x="10" y="4218">  │ │ │ │   │ │ │ └── verror@1.3.6 </tspan>
<tspan x="10" y="4234">  │ │ │ │   │ │ └─┬ sshpk@1.13.0 </tspan>
<tspan x="10" y="4250">  │ │ │ │   │ │   ├── asn1@0.2.3 </tspan>
<tspan x="10" y="4266">  │ │ │ │   │ │   ├── assert-plus@1.0.0 </tspan>
<tspan x="10" y="4282">  │ │ │ │   │ │   ├── bcrypt-pbkdf@1.0.1 </tspan>
<tspan x="10" y="4298">  │ │ │ │   │ │   ├─┬ dashdash@1.14.1 </tspan>
<tspan x="10" y="4314">  │ │ │ │   │ │   │ └── assert-plus@1.0.0 </tspan>
<tspan x="10" y="4330">  │ │ │ │   │ │   ├── ecc-jsbn@0.1.1 </tspan>
<tspan x="10" y="4346">  │ │ │ │   │ │   ├─┬ getpass@0.1.6 </tspan>
<tspan x="10" y="4362">  │ │ │ │   │ │   │ └── assert-plus@1.0.0 </tspan>
<tspan x="10" y="4378">  │ │ │ │   │ │   ├── jodid25519@1.0.2 </tspan>
<tspan x="10" y="4394">  │ │ │ │   │ │   ├── jsbn@0.1.1 </tspan>
<tspan x="10" y="4410">  │ │ │ │   │ │   └── tweetnacl@0.14.5 </tspan>
<tspan x="10" y="4426">  │ │ │ │   │ ├── is-typedarray@1.0.0 </tspan>
<tspan x="10" y="4442">  │ │ │ │   │ ├── isstream@0.1.2 </tspan>
<tspan x="10" y="4458">  │ │ │ │   │ ├── json-stringify-safe@5.0.1 </tspan>
<tspan x="10" y="4474">  │ │ │ │   │ ├── oauth-sign@0.8.2 </tspan>
<tspan x="10" y="4490">  │ │ │ │   │ ├── safe-buffer@5.0.1 </tspan>
<tspan x="10" y="4506">  │ │ │ │   │ ├── stringstream@0.0.5 </tspan>
<tspan x="10" y="4522">  │ │ │ │   │ ├─┬ tough-cookie@2.3.2 </tspan>
<tspan x="10" y="4538">  │ │ │ │   │ │ └── punycode@1.4.1 </tspan>
<tspan x="10" y="4554">  │ │ │ │   │ ├── tunnel-agent@0.6.0 </tspan>
<tspan x="10" y="4570">  │ │ │ │   │ └── uuid@3.0.1 </tspan>
<tspan x="10" y="4586">  │ │ │ │   ├─┬ rimraf@2.6.1 </tspan>
<tspan x="10" y="4602">  │ │ │ │   │ └─┬ glob@7.1.1 </tspan>
<tspan x="10" y="4618">  │ │ │ │   │   └── fs.realpath@1.0.0 </tspan>
<tspan x="10" y="4634">  │ │ │ │   ├── semver@5.3.0 </tspan>
<tspan x="10" y="4650">  │ │ │ │   ├─┬ tar@2.2.1 </tspan>
<tspan x="10" y="4666">  │ │ │ │   │ ├── block-stream@0.0.9 </tspan>
<tspan x="10" y="4682">  │ │ │ │   │ └── fstream@1.0.11 </tspan>
<tspan x="10" y="4698">  │ │ │ │   └─┬ tar-pack@3.4.0 </tspan>
<tspan x="10" y="4714">  │ │ │ │     ├── fstream-ignore@1.0.5 </tspan>
<tspan x="10" y="4730">  │ │ │ │     ├─┬ rimraf@2.6.1 </tspan>
<tspan x="10" y="4746">  │ │ │ │     │ └── glob@7.1.1 </tspan>
<tspan x="10" y="4762">  │ │ │ │     └── uid-number@0.0.6 </tspan>
<tspan x="10" y="4778">  │ │ │ ├── v8-profiler@5.6.5 </tspan>
<tspan x="10" y="4794">  │ │ │ ├─┬ which@1.2.14 </tspan>
<tspan x="10" y="4810">  │ │ │ │ └── isexe@2.0.0 </tspan>
<tspan x="10" y="4826">  │ │ │ ├─┬ ws@1.1.4 </tspan>
<tspan x="10" y="4842">  │ │ │ │ ├── options@0.0.6 </tspan>
<tspan x="10" y="4858">  │ │ │ │ └── ultron@1.0.2 </tspan>
<tspan x="10" y="4874">  │ │ │ └─┬ yargs@3.32.0 </tspan>
<tspan x="10" y="4890">  │ │ │   ├── camelcase@2.1.1 </tspan>
<tspan x="10" y="4906">  │ │ │   ├─┬ cliui@3.2.0 </tspan>
<tspan x="10" y="4922">  │ │ │   │ └── wrap-ansi@2.1.0 </tspan>
<tspan x="10" y="4938">  │ │ │   ├── decamelize@1.2.0 </tspan>
<tspan x="10" y="4954">  │ │ │   ├─┬ os-locale@1.4.0 </tspan>
<tspan x="10" y="4970">  │ │ │   │ └─┬ lcid@1.0.0 </tspan>
<tspan x="10" y="4986">  │ │ │   │   └── invert-kv@1.0.0 </tspan>
<tspan x="10" y="5002">  │ │ │   ├─┬ string-width@1.0.2 </tspan>
<tspan x="10" y="5018">  │ │ │   │ ├── code-point-at@1.1.0 </tspan>
<tspan x="10" y="5034">  │ │ │   │ └─┬ is-fullwidth-code-point@1.0.0 </tspan>
<tspan x="10" y="5050">  │ │ │   │   └── number-is-nan@1.0.1 </tspan>
<tspan x="10" y="5066">  │ │ │   ├── window-size@0.1.4 </tspan>
<tspan x="10" y="5082">  │ │ │   └── y18n@3.2.1 </tspan>
<tspan x="10" y="5098">  │ │ ├── qs@6.4.0 </tspan>
<tspan x="10" y="5114">  │ │ └─┬ url@0.11.0 </tspan>
<tspan x="10" y="5130">  │ │   ├── punycode@1.3.2 </tspan>
<tspan x="10" y="5146">  │ │   └── querystring@0.2.0 </tspan>
<tspan x="10" y="5162">  │ ├─┬ url-parse@1.1.8 </tspan>
<tspan x="10" y="5178">  │ │ ├── querystringify@0.0.4 </tspan>
<tspan x="10" y="5194">  │ │ └── requires-port@1.0.0 </tspan>
<tspan x="10" y="5210">  │ ├── UNMET PEER DEPENDENCY webpack@&gt;=1.3.0 &lt;3</tspan>
<tspan x="10" y="5226">  │ ├── whatwg-fetch@0.11.1 </tspan>
<tspan x="10" y="5242">  │ ├─┬ worker-loader@0.7.1 </tspan>
<tspan x="10" y="5258">  │ │ └─┬ loader-utils@0.2.17 </tspan>
<tspan x="10" y="5274">  │ │   ├── big.js@3.1.3 </tspan>
<tspan x="10" y="5290">  │ │   ├── emojis-list@2.1.0 </tspan>
<tspan x="10" y="5306">  │ │   └── json5@0.5.1 </tspan>
<tspan x="10" y="5322">  │ ├── xml@1.0.1 </tspan>
<tspan x="10" y="5338">  │ └── yaml-js@0.1.4 </tspan>
<tspan x="10" y="5354">  ├── UNMET PEER DEPENDENCY webpack@&gt;=1.3.0 &lt;3</tspan>
<tspan x="10" y="5370">  └─┬ webpack-dev-server@1.14.0 </tspan>
<tspan x="10" y="5386">    ├─┬ compression@1.6.2 </tspan>
<tspan x="10" y="5402">    │ ├─┬ accepts@1.3.3 </tspan>
<tspan x="10" y="5418">    │ │ └── negotiator@0.6.1 </tspan>
<tspan x="10" y="5434">    │ ├── bytes@2.3.0 </tspan>
<tspan x="10" y="5450">    │ ├─┬ compressible@2.0.10 </tspan>
<tspan x="10" y="5466">    │ │ └── mime-db@1.27.0 </tspan>
<tspan x="10" y="5482">    │ ├─┬ debug@2.2.0 </tspan>
<tspan x="10" y="5498">    │ │ └── ms@0.7.1 </tspan>
<tspan x="10" y="5514">    │ ├── on-headers@1.0.1 </tspan>
<tspan x="10" y="5530">    │ └── vary@1.1.1 </tspan>
<tspan x="10" y="5546">    ├── connect-history-api-fallback@1.1.0 </tspan>
<tspan x="10" y="5562">    ├─┬ express@4.15.2 </tspan>
<tspan x="10" y="5578">    │ ├── array-flatten@1.1.1 </tspan>
<tspan x="10" y="5594">    │ ├── content-disposition@0.5.2 </tspan>
<tspan x="10" y="5610">    │ ├── content-type@1.0.2 </tspan>
<tspan x="10" y="5626">    │ ├── cookie@0.3.1 </tspan>
<tspan x="10" y="5642">    │ ├── cookie-signature@1.0.6 </tspan>
<tspan x="10" y="5658">    │ ├─┬ debug@2.6.1 </tspan>
<tspan x="10" y="5674">    │ │ └── ms@0.7.2 </tspan>
<tspan x="10" y="5690">    │ ├── depd@1.1.0 </tspan>
<tspan x="10" y="5706">    │ ├── encodeurl@1.0.1 </tspan>
<tspan x="10" y="5722">    │ ├── escape-html@1.0.3 </tspan>
<tspan x="10" y="5738">    │ ├── etag@1.8.0 </tspan>
<tspan x="10" y="5754">    │ ├─┬ finalhandler@1.0.1 </tspan>
<tspan x="10" y="5770">    │ │ └── unpipe@1.0.0 </tspan>
<tspan x="10" y="5786">    │ ├── fresh@0.5.0 </tspan>
<tspan x="10" y="5802">    │ ├── merge-descriptors@1.0.1 </tspan>
<tspan x="10" y="5818">    │ ├── methods@1.1.2 </tspan>
<tspan x="10" y="5834">    │ ├─┬ on-finished@2.3.0 </tspan>
<tspan x="10" y="5850">    │ │ └── ee-first@1.1.1 </tspan>
<tspan x="10" y="5866">    │ ├── parseurl@1.3.1 </tspan>
<tspan x="10" y="5882">    │ ├── path-to-regexp@0.1.7 </tspan>
<tspan x="10" y="5898">    │ ├─┬ proxy-addr@1.1.4 </tspan>
<tspan x="10" y="5914">    │ │ ├── forwarded@0.1.0 </tspan>
<tspan x="10" y="5930">    │ │ └── ipaddr.js@1.3.0 </tspan>
<tspan x="10" y="5946">    │ ├── range-parser@1.2.0 </tspan>
<tspan x="10" y="5962">    │ ├─┬ send@0.15.1 </tspan>
<tspan x="10" y="5978">    │ │ ├── debug@2.6.1 </tspan>
<tspan x="10" y="5994">    │ │ ├── destroy@1.0.4 </tspan>
<tspan x="10" y="6010">    │ │ └── http-errors@1.6.1 </tspan>
<tspan x="10" y="6026">    │ ├── serve-static@1.12.1 </tspan>
<tspan x="10" y="6042">    │ ├── setprototypeof@1.0.3 </tspan>
<tspan x="10" y="6058">    │ ├── statuses@1.3.1 </tspan>
<tspan x="10" y="6074">    │ ├─┬ type-is@1.6.15 </tspan>
<tspan x="10" y="6090">    │ │ └── media-typer@0.3.0 </tspan>
<tspan x="10" y="6106">    │ └── utils-merge@1.0.0 </tspan>
<tspan x="10" y="6122">    ├─┬ http-proxy@1.16.2 </tspan>
<tspan x="10" y="6138">    │ └── eventemitter3@1.2.0 </tspan>
<tspan x="10" y="6154">    ├─┬ optimist@0.6.1 </tspan>
<tspan x="10" y="6170">    │ ├── minimist@0.0.8 </tspan>
<tspan x="10" y="6186">    │ └── wordwrap@0.0.3 </tspan>
<tspan x="10" y="6202">    ├─┬ serve-index@1.8.0 </tspan>
<tspan x="10" y="6218">    │ ├── batch@0.5.3 </tspan>
<tspan x="10" y="6234">    │ ├─┬ debug@2.2.0 </tspan>
<tspan x="10" y="6250">    │ │ └── ms@0.7.1 </tspan>
<tspan x="10" y="6266">    │ ├─┬ http-errors@1.5.1 </tspan>
<tspan x="10" y="6282">    │ │ └── setprototypeof@1.0.2 </tspan>
<tspan x="10" y="6298">    │ └── mime-types@2.1.15 </tspan>
<tspan x="10" y="6314">    ├─┬ sockjs@0.3.18 </tspan>
<tspan x="10" y="6330">    │ ├─┬ faye-websocket@0.10.0 </tspan>
<tspan x="10" y="6346">    │ │ └─┬ websocket-driver@0.6.5 </tspan>
<tspan x="10" y="6362">    │ │   └── websocket-extensions@0.1.1 </tspan>
<tspan x="10" y="6378">    │ └── uuid@2.0.3 </tspan>
<tspan x="10" y="6394">    ├─┬ sockjs-client@1.1.2 </tspan>
<tspan x="10" y="6410">    │ ├── debug@2.6.3 </tspan>
<tspan x="10" y="6426">    │ ├─┬ eventsource@0.1.6 </tspan>
<tspan x="10" y="6442">    │ │ └─┬ original@1.0.0 </tspan>
<tspan x="10" y="6458">    │ │   └── url-parse@1.0.5 </tspan>
<tspan x="10" y="6474">    │ ├── faye-websocket@0.11.1 </tspan>
<tspan x="10" y="6490">    │ ├── inherits@2.0.3 </tspan>
<tspan x="10" y="6506">    │ └── json3@3.3.2 </tspan>
<tspan x="10" y="6522">    ├── stream-cache@0.0.2 </tspan>
<tspan x="10" y="6538">    ├─┬ strip-ansi@3.0.1 </tspan>
<tspan x="10" y="6554">    │ └── ansi-regex@2.1.1 </tspan>
<tspan x="10" y="6570">    ├─┬ supports-color@3.2.3 </tspan>
<tspan x="10" y="6586">    │ └── has-flag@1.0.0 </tspan>
<tspan x="10" y="6602">    ├── UNMET PEER DEPENDENCY webpack@1 || ^2.1.0-beta || ^2.2.0-rc.0</tspan>
<tspan x="10" y="6618">    └─┬ webpack-dev-middleware@1.10.1 </tspan>
<tspan x="10" y="6634">      ├─┬ memory-fs@0.4.1 </tspan>
<tspan x="10" y="6650">      │ └─┬ readable-stream@2.2.9 </tspan>
<tspan x="10" y="6666">      │   ├── buffer-shims@1.0.0 </tspan>
<tspan x="10" y="6682">      │   ├── core-util-is@1.0.2 </tspan>
<tspan x="10" y="6698">      │   ├── isarray@1.0.0 </tspan>
<tspan x="10" y="6714">      │   ├── process-nextick-args@1.0.7 </tspan>
<tspan x="10" y="6730">      │   ├── string_decoder@1.0.0 </tspan>
<tspan x="10" y="6746">      │   └── util-deprecate@1.0.2 </tspan>
<tspan x="10" y="6762">      └── path-is-absolute@1.0.1</tspan>
</text>
</svg>
