<svg height="3998" width="720" xmlns="http://www.w3.org/2000/svg">
<rect height="3998" fill="#555" width="720"></rect>
<text fill="#7f7" font-family="Courier New" font-size="12" xml:space="preserve">
<tspan x="10" y="26">89 megabytes installed</tspan>
<tspan x="10" y="42"></tspan>
<tspan x="10" y="58">node_modules</tspan>
<tspan x="10" y="74">└─┬ swagger-editor@3.0.7 </tspan>
<tspan x="10" y="90">  ├─┬ boron@0.2.3 </tspan>
<tspan x="10" y="106">  │ └── domkit@0.0.1 </tspan>
<tspan x="10" y="122">  ├── immutable@3.8.1 </tspan>
<tspan x="10" y="138">  ├─┬ js-yaml@3.8.3 </tspan>
<tspan x="10" y="154">  │ ├─┬ argparse@1.0.9 </tspan>
<tspan x="10" y="170">  │ │ └── sprintf-js@1.0.3 </tspan>
<tspan x="10" y="186">  │ └── esprima@3.1.3 </tspan>
<tspan x="10" y="202">  ├── json-beautify@1.0.1 </tspan>
<tspan x="10" y="218">  ├── jsonschema@1.1.1 </tspan>
<tspan x="10" y="234">  ├─┬ UNMET PEER DEPENDENCY react@15.5.4</tspan>
<tspan x="10" y="250">  │ ├─┬ fbjs@0.8.12 </tspan>
<tspan x="10" y="266">  │ │ ├── core-js@1.2.7 </tspan>
<tspan x="10" y="282">  │ │ ├─┬ isomorphic-fetch@2.2.1 </tspan>
<tspan x="10" y="298">  │ │ │ ├─┬ node-fetch@1.6.3 </tspan>
<tspan x="10" y="314">  │ │ │ │ ├─┬ encoding@0.1.12 </tspan>
<tspan x="10" y="330">  │ │ │ │ │ └── iconv-lite@0.4.16 </tspan>
<tspan x="10" y="346">  │ │ │ │ └── is-stream@1.1.0 </tspan>
<tspan x="10" y="362">  │ │ │ └── whatwg-fetch@2.0.3 </tspan>
<tspan x="10" y="378">  │ │ ├─┬ promise@7.1.1 </tspan>
<tspan x="10" y="394">  │ │ │ └── asap@2.0.5 </tspan>
<tspan x="10" y="410">  │ │ ├── setimmediate@1.0.5 </tspan>
<tspan x="10" y="426">  │ │ └── ua-parser-js@0.7.12 </tspan>
<tspan x="10" y="442">  │ ├─┬ loose-envify@1.3.1 </tspan>
<tspan x="10" y="458">  │ │ └── js-tokens@3.0.1 </tspan>
<tspan x="10" y="474">  │ ├── object-assign@4.1.1 </tspan>
<tspan x="10" y="490">  │ └── prop-types@15.5.8 </tspan>
<tspan x="10" y="506">  ├── react-addons-css-transition-group@15.5.2 </tspan>
<tspan x="10" y="522">  ├─┬ react-dd-menu@2.0.0 </tspan>
<tspan x="10" y="538">  │ └── classnames@2.2.5 </tspan>
<tspan x="10" y="554">  ├── react-dom@15.5.4 </tspan>
<tspan x="10" y="570">  ├── react-file-download@0.3.3 </tspan>
<tspan x="10" y="586">  ├─┬ react-redux@4.4.8 </tspan>
<tspan x="10" y="602">  │ ├── create-react-class@15.5.2 </tspan>
<tspan x="10" y="618">  │ ├── hoist-non-react-statics@1.2.0 </tspan>
<tspan x="10" y="634">  │ ├── invariant@2.2.2 </tspan>
<tspan x="10" y="650">  │ └── lodash@4.17.4 </tspan>
<tspan x="10" y="666">  ├─┬ redux@3.6.0 </tspan>
<tspan x="10" y="682">  │ ├── lodash-es@4.17.4 </tspan>
<tspan x="10" y="698">  │ └── symbol-observable@1.0.4 </tspan>
<tspan x="10" y="714">  ├─┬ swagger-ui@3.0.7 </tspan>
<tspan x="10" y="730">  │ ├─┬ babel-polyfill@6.23.0 </tspan>
<tspan x="10" y="746">  │ │ ├─┬ babel-runtime@6.23.0 </tspan>
<tspan x="10" y="762">  │ │ │ └── core-js@2.4.1 </tspan>
<tspan x="10" y="778">  │ │ ├── core-js@2.4.1 </tspan>
<tspan x="10" y="794">  │ │ └── regenerator-runtime@0.10.4 </tspan>
<tspan x="10" y="810">  │ ├─┬ brace@0.7.0 </tspan>
<tspan x="10" y="826">  │ │ └── w3c-blob@0.0.1 </tspan>
<tspan x="10" y="842">  │ ├── deep-extend@0.4.1 </tspan>
<tspan x="10" y="858">  │ ├─┬ expect@1.20.2 </tspan>
<tspan x="10" y="874">  │ │ ├─┬ define-properties@1.1.2 </tspan>
<tspan x="10" y="890">  │ │ │ └── foreach@2.0.5 </tspan>
<tspan x="10" y="906">  │ │ ├─┬ has@1.0.1 </tspan>
<tspan x="10" y="922">  │ │ │ └── function-bind@1.1.0 </tspan>
<tspan x="10" y="938">  │ │ ├─┬ is-equal@1.5.5 </tspan>
<tspan x="10" y="954">  │ │ │ ├── is-arrow-function@2.0.3 </tspan>
<tspan x="10" y="970">  │ │ │ ├── is-boolean-object@1.0.0 </tspan>
<tspan x="10" y="986">  │ │ │ ├── is-callable@1.1.3 </tspan>
<tspan x="10" y="1002">  │ │ │ ├── is-date-object@1.0.1 </tspan>
<tspan x="10" y="1018">  │ │ │ ├── is-generator-function@1.0.6 </tspan>
<tspan x="10" y="1034">  │ │ │ ├── is-number-object@1.0.3 </tspan>
<tspan x="10" y="1050">  │ │ │ ├── is-string@1.0.4 </tspan>
<tspan x="10" y="1066">  │ │ │ ├── is-symbol@1.0.1 </tspan>
<tspan x="10" y="1082">  │ │ │ └─┬ object.entries@1.0.4 </tspan>
<tspan x="10" y="1098">  │ │ │   └─┬ es-abstract@1.7.0 </tspan>
<tspan x="10" y="1114">  │ │ │     └── es-to-primitive@1.1.1 </tspan>
<tspan x="10" y="1130">  │ │ ├── is-regex@1.0.4 </tspan>
<tspan x="10" y="1146">  │ │ ├── object-inspect@1.2.2 </tspan>
<tspan x="10" y="1162">  │ │ ├── object-keys@1.0.11 </tspan>
<tspan x="10" y="1178">  │ │ └── tmatch@2.0.1 </tspan>
<tspan x="10" y="1194">  │ ├── getbase@2.8.2 </tspan>
<tspan x="10" y="1210">  │ ├─┬ less@2.7.1 </tspan>
<tspan x="10" y="1226">  │ │ ├─┬ errno@0.1.4 </tspan>
<tspan x="10" y="1242">  │ │ │ └── prr@0.0.0 </tspan>
<tspan x="10" y="1258">  │ │ ├── graceful-fs@4.1.11 </tspan>
<tspan x="10" y="1274">  │ │ ├── image-size@0.5.1 </tspan>
<tspan x="10" y="1290">  │ │ ├── mime@1.3.4 </tspan>
<tspan x="10" y="1306">  │ │ ├── mkdirp@0.5.1 </tspan>
<tspan x="10" y="1322">  │ │ └── source-map@0.5.6 </tspan>
<tspan x="10" y="1338">  │ ├── lodash@4.17.2 </tspan>
<tspan x="10" y="1354">  │ ├─┬ matcher@0.1.2 </tspan>
<tspan x="10" y="1370">  │ │ └── escape-string-regexp@1.0.5 </tspan>
<tspan x="10" y="1386">  │ ├─┬ memoizee@0.4.1 </tspan>
<tspan x="10" y="1402">  │ │ ├── d@1.0.0 </tspan>
<tspan x="10" y="1418">  │ │ ├─┬ es5-ext@0.10.15 </tspan>
<tspan x="10" y="1434">  │ │ │ ├── es6-iterator@2.0.1 </tspan>
<tspan x="10" y="1450">  │ │ │ └── es6-symbol@3.1.1 </tspan>
<tspan x="10" y="1466">  │ │ ├── es6-weak-map@2.0.2 </tspan>
<tspan x="10" y="1482">  │ │ ├── event-emitter@0.3.5 </tspan>
<tspan x="10" y="1498">  │ │ ├── is-promise@2.1.0 </tspan>
<tspan x="10" y="1514">  │ │ ├── lru-queue@0.1.0 </tspan>
<tspan x="10" y="1530">  │ │ ├── next-tick@1.0.0 </tspan>
<tspan x="10" y="1546">  │ │ └── timers-ext@0.1.2 </tspan>
<tspan x="10" y="1562">  │ ├─┬ promise-worker@1.1.1 </tspan>
<tspan x="10" y="1578">  │ │ └─┬ lie@3.1.1 </tspan>
<tspan x="10" y="1594">  │ │   └── immediate@3.0.6 </tspan>
<tspan x="10" y="1610">  │ ├── react-addons-perf@0.14.8 </tspan>
<tspan x="10" y="1626">  │ ├── react-addons-shallow-compare@0.14.8 </tspan>
<tspan x="10" y="1642">  │ ├── react-addons-test-utils@15.5.1 </tspan>
<tspan x="10" y="1658">  │ ├── react-collapse@2.3.1 </tspan>
<tspan x="10" y="1674">  │ ├── react-height@2.2.1 </tspan>
<tspan x="10" y="1690">  │ ├─┬ react-hot-loader@1.3.1 </tspan>
<tspan x="10" y="1706">  │ │ ├── react-hot-api@0.4.7 </tspan>
<tspan x="10" y="1722">  │ │ └─┬ source-map@0.4.4 </tspan>
<tspan x="10" y="1738">  │ │   └── amdefine@1.0.1 </tspan>
<tspan x="10" y="1754">  │ ├── react-immutable-proptypes@2.1.0 </tspan>
<tspan x="10" y="1770">  │ ├─┬ react-motion@0.4.4 </tspan>
<tspan x="10" y="1786">  │ │ ├── performance-now@0.2.0 </tspan>
<tspan x="10" y="1802">  │ │ └── raf@3.3.0 </tspan>
<tspan x="10" y="1818">  │ ├── react-object-inspector@0.2.1 </tspan>
<tspan x="10" y="1834">  │ ├─┬ react-remarkable@1.1.1 </tspan>
<tspan x="10" y="1850">  │ │ └─┬ remarkable@1.7.1 </tspan>
<tspan x="10" y="1866">  │ │   ├─┬ argparse@0.1.16 </tspan>
<tspan x="10" y="1882">  │ │   │ ├── underscore@1.7.0 </tspan>
<tspan x="10" y="1898">  │ │   │ └── underscore.string@2.4.0 </tspan>
<tspan x="10" y="1914">  │ │   └── autolinker@0.15.3 </tspan>
<tspan x="10" y="1930">  │ ├─┬ react-split-pane@0.1.57 </tspan>
<tspan x="10" y="1946">  │ │ ├─┬ inline-style-prefixer@2.0.5 </tspan>
<tspan x="10" y="1962">  │ │ │ ├── bowser@1.6.1 </tspan>
<tspan x="10" y="1978">  │ │ │ └── hyphenate-style-name@1.0.2 </tspan>
<tspan x="10" y="1994">  │ │ └── react-style-proptype@1.4.0 </tspan>
<tspan x="10" y="2010">  │ ├── redux-immutable@3.0.8 </tspan>
<tspan x="10" y="2026">  │ ├─┬ redux-logger@3.0.1 </tspan>
<tspan x="10" y="2042">  │ │ └── deep-diff@0.3.4 </tspan>
<tspan x="10" y="2058">  │ ├── reselect@2.5.3 </tspan>
<tspan x="10" y="2074">  │ ├── serialize-error@2.0.0 </tspan>
<tspan x="10" y="2090">  │ ├─┬ shallowequal@0.2.2 </tspan>
<tspan x="10" y="2106">  │ │ └─┬ lodash.keys@3.1.2 </tspan>
<tspan x="10" y="2122">  │ │   ├── lodash._getnative@3.9.1 </tspan>
<tspan x="10" y="2138">  │ │   ├── lodash.isarguments@3.1.0 </tspan>
<tspan x="10" y="2154">  │ │   └── lodash.isarray@3.0.4 </tspan>
<tspan x="10" y="2170">  │ ├─┬ swagger-client@3.0.7 </tspan>
<tspan x="10" y="2186">  │ │ ├── btoa@1.1.2 </tspan>
<tspan x="10" y="2202">  │ │ ├── fast-json-patch@1.1.9 </tspan>
<tspan x="10" y="2218">  │ │ ├─┬ isomorphic-form-data@0.0.1 </tspan>
<tspan x="10" y="2234">  │ │ │ └─┬ form-data@1.0.1 </tspan>
<tspan x="10" y="2250">  │ │ │   ├── async@2.3.0 </tspan>
<tspan x="10" y="2266">  │ │ │   └─┬ combined-stream@1.0.5 </tspan>
<tspan x="10" y="2282">  │ │ │     └── delayed-stream@1.0.0 </tspan>
<tspan x="10" y="2298">  │ │ ├── lodash@4.16.2 </tspan>
<tspan x="10" y="2314">  │ │ ├── qs@6.4.0 </tspan>
<tspan x="10" y="2330">  │ │ └─┬ url@0.11.0 </tspan>
<tspan x="10" y="2346">  │ │   ├── punycode@1.3.2 </tspan>
<tspan x="10" y="2362">  │ │   └── querystring@0.2.0 </tspan>
<tspan x="10" y="2378">  │ ├─┬ url-parse@1.1.8 </tspan>
<tspan x="10" y="2394">  │ │ ├── querystringify@0.0.4 </tspan>
<tspan x="10" y="2410">  │ │ └── requires-port@1.0.0 </tspan>
<tspan x="10" y="2426">  │ ├── UNMET PEER DEPENDENCY webpack@&gt;=1.3.0 &lt;3</tspan>
<tspan x="10" y="2442">  │ ├── whatwg-fetch@0.11.1 </tspan>
<tspan x="10" y="2458">  │ ├─┬ worker-loader@0.7.1 </tspan>
<tspan x="10" y="2474">  │ │ └─┬ loader-utils@0.2.17 </tspan>
<tspan x="10" y="2490">  │ │   ├── big.js@3.1.3 </tspan>
<tspan x="10" y="2506">  │ │   ├── emojis-list@2.1.0 </tspan>
<tspan x="10" y="2522">  │ │   └── json5@0.5.1 </tspan>
<tspan x="10" y="2538">  │ ├── xml@1.0.1 </tspan>
<tspan x="10" y="2554">  │ └── yaml-js@0.1.5 </tspan>
<tspan x="10" y="2570">  ├── UNMET PEER DEPENDENCY webpack@&gt;=1.3.0 &lt;3</tspan>
<tspan x="10" y="2586">  └─┬ webpack-dev-server@1.14.0 </tspan>
<tspan x="10" y="2602">    ├─┬ compression@1.6.2 </tspan>
<tspan x="10" y="2618">    │ ├─┬ accepts@1.3.3 </tspan>
<tspan x="10" y="2634">    │ │ └── negotiator@0.6.1 </tspan>
<tspan x="10" y="2650">    │ ├── bytes@2.3.0 </tspan>
<tspan x="10" y="2666">    │ ├─┬ compressible@2.0.10 </tspan>
<tspan x="10" y="2682">    │ │ └── mime-db@1.27.0 </tspan>
<tspan x="10" y="2698">    │ ├─┬ debug@2.2.0 </tspan>
<tspan x="10" y="2714">    │ │ └── ms@0.7.1 </tspan>
<tspan x="10" y="2730">    │ ├── on-headers@1.0.1 </tspan>
<tspan x="10" y="2746">    │ └── vary@1.1.1 </tspan>
<tspan x="10" y="2762">    ├── connect-history-api-fallback@1.1.0 </tspan>
<tspan x="10" y="2778">    ├─┬ express@4.15.2 </tspan>
<tspan x="10" y="2794">    │ ├── array-flatten@1.1.1 </tspan>
<tspan x="10" y="2810">    │ ├── content-disposition@0.5.2 </tspan>
<tspan x="10" y="2826">    │ ├── content-type@1.0.2 </tspan>
<tspan x="10" y="2842">    │ ├── cookie@0.3.1 </tspan>
<tspan x="10" y="2858">    │ ├── cookie-signature@1.0.6 </tspan>
<tspan x="10" y="2874">    │ ├─┬ debug@2.6.1 </tspan>
<tspan x="10" y="2890">    │ │ └── ms@0.7.2 </tspan>
<tspan x="10" y="2906">    │ ├── depd@1.1.0 </tspan>
<tspan x="10" y="2922">    │ ├── encodeurl@1.0.1 </tspan>
<tspan x="10" y="2938">    │ ├── escape-html@1.0.3 </tspan>
<tspan x="10" y="2954">    │ ├── etag@1.8.0 </tspan>
<tspan x="10" y="2970">    │ ├─┬ finalhandler@1.0.2 </tspan>
<tspan x="10" y="2986">    │ │ ├─┬ debug@2.6.4 </tspan>
<tspan x="10" y="3002">    │ │ │ └── ms@0.7.3 </tspan>
<tspan x="10" y="3018">    │ │ └── unpipe@1.0.0 </tspan>
<tspan x="10" y="3034">    │ ├── fresh@0.5.0 </tspan>
<tspan x="10" y="3050">    │ ├── merge-descriptors@1.0.1 </tspan>
<tspan x="10" y="3066">    │ ├── methods@1.1.2 </tspan>
<tspan x="10" y="3082">    │ ├─┬ on-finished@2.3.0 </tspan>
<tspan x="10" y="3098">    │ │ └── ee-first@1.1.1 </tspan>
<tspan x="10" y="3114">    │ ├── parseurl@1.3.1 </tspan>
<tspan x="10" y="3130">    │ ├── path-to-regexp@0.1.7 </tspan>
<tspan x="10" y="3146">    │ ├─┬ proxy-addr@1.1.4 </tspan>
<tspan x="10" y="3162">    │ │ ├── forwarded@0.1.0 </tspan>
<tspan x="10" y="3178">    │ │ └── ipaddr.js@1.3.0 </tspan>
<tspan x="10" y="3194">    │ ├── range-parser@1.2.0 </tspan>
<tspan x="10" y="3210">    │ ├─┬ send@0.15.1 </tspan>
<tspan x="10" y="3226">    │ │ ├── debug@2.6.1 </tspan>
<tspan x="10" y="3242">    │ │ ├── destroy@1.0.4 </tspan>
<tspan x="10" y="3258">    │ │ ├── http-errors@1.6.1 </tspan>
<tspan x="10" y="3274">    │ │ └── ms@0.7.2 </tspan>
<tspan x="10" y="3290">    │ ├── serve-static@1.12.1 </tspan>
<tspan x="10" y="3306">    │ ├── setprototypeof@1.0.3 </tspan>
<tspan x="10" y="3322">    │ ├── statuses@1.3.1 </tspan>
<tspan x="10" y="3338">    │ ├─┬ type-is@1.6.15 </tspan>
<tspan x="10" y="3354">    │ │ └── media-typer@0.3.0 </tspan>
<tspan x="10" y="3370">    │ └── utils-merge@1.0.0 </tspan>
<tspan x="10" y="3386">    ├─┬ http-proxy@1.16.2 </tspan>
<tspan x="10" y="3402">    │ └── eventemitter3@1.2.0 </tspan>
<tspan x="10" y="3418">    ├─┬ optimist@0.6.1 </tspan>
<tspan x="10" y="3434">    │ ├── minimist@0.0.8 </tspan>
<tspan x="10" y="3450">    │ └── wordwrap@0.0.3 </tspan>
<tspan x="10" y="3466">    ├─┬ serve-index@1.8.0 </tspan>
<tspan x="10" y="3482">    │ ├── batch@0.5.3 </tspan>
<tspan x="10" y="3498">    │ ├─┬ http-errors@1.5.1 </tspan>
<tspan x="10" y="3514">    │ │ └── setprototypeof@1.0.2 </tspan>
<tspan x="10" y="3530">    │ └── mime-types@2.1.15 </tspan>
<tspan x="10" y="3546">    ├─┬ sockjs@0.3.18 </tspan>
<tspan x="10" y="3562">    │ ├─┬ faye-websocket@0.10.0 </tspan>
<tspan x="10" y="3578">    │ │ └─┬ websocket-driver@0.6.5 </tspan>
<tspan x="10" y="3594">    │ │   └── websocket-extensions@0.1.1 </tspan>
<tspan x="10" y="3610">    │ └── uuid@2.0.3 </tspan>
<tspan x="10" y="3626">    ├─┬ sockjs-client@1.1.2 </tspan>
<tspan x="10" y="3642">    │ ├─┬ eventsource@0.1.6 </tspan>
<tspan x="10" y="3658">    │ │ └─┬ original@1.0.0 </tspan>
<tspan x="10" y="3674">    │ │   └── url-parse@1.0.5 </tspan>
<tspan x="10" y="3690">    │ ├── faye-websocket@0.11.1 </tspan>
<tspan x="10" y="3706">    │ ├── inherits@2.0.3 </tspan>
<tspan x="10" y="3722">    │ └── json3@3.3.2 </tspan>
<tspan x="10" y="3738">    ├── stream-cache@0.0.2 </tspan>
<tspan x="10" y="3754">    ├─┬ strip-ansi@3.0.1 </tspan>
<tspan x="10" y="3770">    │ └── ansi-regex@2.1.1 </tspan>
<tspan x="10" y="3786">    ├─┬ supports-color@3.2.3 </tspan>
<tspan x="10" y="3802">    │ └── has-flag@1.0.0 </tspan>
<tspan x="10" y="3818">    ├── UNMET PEER DEPENDENCY webpack@1 || ^2.1.0-beta || ^2.2.0-rc.0</tspan>
<tspan x="10" y="3834">    └─┬ webpack-dev-middleware@1.10.2 </tspan>
<tspan x="10" y="3850">      ├─┬ memory-fs@0.4.1 </tspan>
<tspan x="10" y="3866">      │ └─┬ readable-stream@2.2.9 </tspan>
<tspan x="10" y="3882">      │   ├── buffer-shims@1.0.0 </tspan>
<tspan x="10" y="3898">      │   ├── core-util-is@1.0.2 </tspan>
<tspan x="10" y="3914">      │   ├── isarray@1.0.0 </tspan>
<tspan x="10" y="3930">      │   ├── process-nextick-args@1.0.7 </tspan>
<tspan x="10" y="3946">      │   ├── string_decoder@1.0.0 </tspan>
<tspan x="10" y="3962">      │   └── util-deprecate@1.0.2 </tspan>
<tspan x="10" y="3978">      └── path-is-absolute@1.0.1</tspan>
</text>
</svg>
